<svg xmlns="http://www.w3.org/2000/svg" width="181.849" height="57.996" viewBox="0 0 181.849 57.996">
  <g id="Group_11167" data-name="Group 11167" transform="translate(-410.733 -882.518)">
    <g id="Group_10800" data-name="Group 10800" transform="translate(410.733 882.518)">
      <path id="Path_17670" data-name="Path 17670" d="M178.49,73.921c.8.6,1.488.077.86-.667a106.4,106.4,0,0,1-18.333-31.01c-.684-1.928-1.809-1.185-1.411.318,2.036,6.42,3.567,10.564,7.107,16.319,2.655,4.245,8.037,12.046,11.777,15.04" transform="translate(-138.315 -28.895)" fill="#537e2c"/>
      <path id="Path_17671" data-name="Path 17671" d="M133.534,95.618c.093-2.805,11.713-4.393,14.4,1.09-4.882-3.59-14.257,1.189-14.4-1.09" transform="translate(-120.037 -65.44)" fill="#537e2c"/>
      <path id="Path_17672" data-name="Path 17672" d="M166.332,145.429c-.569-2.209,11.607-7.352,14.263-3.209-6.055-.568-13.4,5.32-14.263,3.209" transform="translate(-143.089 -98.917)" fill="#537e2c"/>
      <path id="Path_17673" data-name="Path 17673" d="M195.632,47.177c-2.157-.689-7.885,11.309-3.923,14.2-1.292-5.826,6.24-12.815,3.923-14.2" transform="translate(-159.992 -33.158)" fill="#537e2c"/>
      <path id="Path_17674" data-name="Path 17674" d="M230.251,93.218c-1.876-.98-8.688,9.219-5.459,12.526.588-5.714,7.192-11.291,5.459-12.526" transform="translate(-183.613 -65.511)" fill="#537e2c"/>
      <path id="Path_17675" data-name="Path 17675" d="M106.449.474c2.815-.935,7.893-.743,7.361,2.956a15.4,15.4,0,0,1-.557,1.942c-.045.151-.193.442.165.508.384.066,1.377.046,2.173.188,2.22.566.6,2.942.241,4.352-.353,1.392.424,2.016,1.446.429C118.351,9.2,120.364,2.715,126.8,1.5c5.442-1.026,8.334,4.178,6,10.4-.869,2.317-2.128,5.411-2.552,7.187-.407,1.206.32,2.525,1.631.665.729-.989,3.493-5.642,4.443-6.565,2.723-2.965,6.907-3.376,9.605.293,9.354,12.721-18.017,22.772-7.471,38.9a12.564,12.564,0,0,0,3.43,3.818c.745.551.51.932-.3.723-2.482-.7-4.683-3.225-6.063-5.31-3.726-5.631-3.4-11.406,1.083-17.646,4.067-5.662,10.942-12.846,6.279-17.38-5.111-4.969-7.194,5.01-11.345,7.448-3.613,2.122-5.591-.324-4.277-4.341,1.014-3.1,3.182-7.512,3.25-10.691-.023-3.4-1.522-5.074-4.8-4.185-3.7,1.042-4.589,4.109-6.2,6.927-2.307,4.032-5.826,3.564-6.1.256a11.7,11.7,0,0,1,.477-3.734c.237-.721-.182-.857-.505-.891-4.534.074-1.921-1.955-1.773-4.086-.184-1.955-2.862-1.892-5.6-.689-1.485.717-3.14,1.829-2.956,2.722.254,1.234,3.106,2.359,2.774,4.53-.322,2.019-5.417.763-4.083,3.5,1.071,2.2,4.551,3.919,4.826,6.557.595,5.71-13.984,8.2-13.386,12.686.272,3.195,7.271,2.707,10,2.421,2.486-.26,3.5-.443,6.63-.762,4.607-.6,7.588,1.822,4.731,5.29-3.415,4.145-13.155,6.647-12.469,10.647,1.4,8.173,24.637-10.173,19.764.51-.129.335-.139.6.837.564,2.34-.2,4.756-.963,7.341-.345a7.956,7.956,0,0,1,5.036,3.152c.847,1.064.427,1.535-.958.768-3.718-2.06-8.536-.957-10.428-.651-2.721.44-5.431.307-4.849-1.329.43-1.01,1.676-2.394,1.334-2.95-.375-.609-4.217,1.194-4.526,1.336-3.719,1.705-9.471,5.756-13.788,4.355-5-1.622-6.444-7.1-.007-11.484.786-.534,3.581-2.243,5.9-3.905,4.527-3.01,2.227-3.233-.111-2.876C89.968,40.6,88.557,35.957,88.1,33.619c-.969-6.4,14.62-9.835,15.462-12.833.6-2.127-4.3-5.144-4.854-7.424-1.164-4.807,7.79-2.227,3.383-6.108-3.227-2.842,1.465-5.841,4.363-6.78" transform="translate(-88.052 0)" fill="#537e2c"/>
    </g>
    <g id="Group_10801" data-name="Group 10801" transform="translate(468.948 906.578)">
      <path id="Path_17669" data-name="Path 17669" d="M83.358,204.669a2.171,2.171,0,0,0-2.308,2v7.87a2.169,2.169,0,0,0,2.308,2h5.28a2.173,2.173,0,0,0,2.312-2v-7.87a2.175,2.175,0,0,0-2.312-2Zm-9.167,1.1a6.251,6.251,0,0,1,6.437-6.048H91.255a6.252,6.252,0,0,1,6.437,6.048v9.682a6.252,6.252,0,0,1-6.437,6.049H80.628a6.252,6.252,0,0,1-6.437-6.049Zm28.245-6.059,14.238-.017s5.818-.094,5.818,4.239v5.851s.311,3.394-4.426,3.394h-.612l5.7,8.359H117.2a4.743,4.743,0,0,1-3.695-2.258l-3.443-6.188h-1.982l-.019,6.823q-.09,1.607-2.516,1.622h-4.885V201.779c0-1.207.333-1.95,1.778-2.073m12.74,6.2v1.424a1.524,1.524,0,0,1-1.509,1.538h-5.825v-4.5h5.825a1.522,1.522,0,0,1,1.509,1.535m-83.155-6.2,12.9-.017c.858,0,5.818-.4,5.818,4.239v5.533s-.067,3.878-4.8,3.878H36.642l-.019,6.572c0,1.735-2.344,1.622-2.344,1.622H29.807V201.944a2.133,2.133,0,0,1,2.215-2.239m11.886,6.2v1.424a1.525,1.525,0,0,1-1.509,1.538H36.573v-4.5H42.4a1.522,1.522,0,0,1,1.509,1.535m27.829,13.88q-.379,1.806-2.647,1.743H59.164c-3.564,0-6.431-2.594-6.431-5.644L52.7,205.158c0-3.045,2.852-5.515,6.412-5.515H69.356c1.6,0,2.274.415,2.274,1.653v3.363h-8.38a2.973,2.973,0,0,0-3.133,2.842v6c.085,2.47,1.061,3.23,3.567,3.23h8.052ZM12.9,213.041h4.043l-2.063-4.352Zm6,4.143H11.019l-1,2.188c-.266.622-1,2.226-3.811,2.226H1.564l11.115-21.04A2.506,2.506,0,0,1,14.9,199.4a2.55,2.55,0,0,1,2.265,1.236L28.788,221.6H23.629a4.213,4.213,0,0,1-3.732-2.254c-.057-.149-.451-1-1-2.16" transform="translate(-1.1 -199.404)" fill="#00424a" fill-rule="evenodd"/>
      <path id="Path_17676" data-name="Path 17676" d="M4.868,294.246l-1.743-5.231c-.069-.18-.12-.251-.318-.251H2.1c-.2,0-.258.07-.318.251L.042,294.246c-.077.235-.043.259.06.259H.721c.137,0,.163-.039.215-.2l.361-1.1H3.434l.369,1.1c.051.165.043.2.206.2h.679c.163,0,.266-.008.18-.259M3.2,292.5H1.528l.842-2.619Z" transform="translate(0 -262.248)" fill="#00424a" fill-rule="evenodd"/>
      <path id="Path_17677" data-name="Path 17677" d="M21.094,296.749c0-.729-.507-1.1-1.314-1.49-.447-.22-.816-.424-.816-.666,0-.337.275-.51.773-.51a4.081,4.081,0,0,1,.893.126c.146.023.3-.541.206-.58a3.809,3.809,0,0,0-1.159-.134c-.867,0-1.675.361-1.675,1.121,0,.635.584.949,1.237,1.255.575.275.867.526.867.847,0,.4-.318.549-.876.549a2.954,2.954,0,0,1-1.142-.2c-.172-.055-.206.557-.12.6a3.442,3.442,0,0,0,1.477.251c.773,0,1.649-.2,1.649-1.169" transform="translate(-12.605 -265.574)" fill="#00424a" fill-rule="evenodd"/>
      <path id="Path_17678" data-name="Path 17678" d="M33.59,296.749c0-.729-.507-1.1-1.314-1.49-.446-.22-.816-.424-.816-.666,0-.337.275-.51.773-.51a4.081,4.081,0,0,1,.893.126c.146.023.3-.541.206-.58a3.807,3.807,0,0,0-1.159-.134c-.867,0-1.674.361-1.674,1.121,0,.635.584.949,1.237,1.255.575.275.868.526.868.847,0,.4-.318.549-.876.549a2.954,2.954,0,0,1-1.142-.2c-.172-.055-.206.557-.12.6a3.442,3.442,0,0,0,1.477.251c.773,0,1.649-.2,1.649-1.169" transform="translate(-21.393 -265.574)" fill="#00424a" fill-rule="evenodd"/>
      <path id="Path_17679" data-name="Path 17679" d="M47.214,295.755c0-1.608-.73-2.235-2-2.235-1.3,0-2.147.6-2.147,2.243,0,1.671.773,2.172,2.1,2.172a1.922,1.922,0,0,0,2.044-2.18m-.979.282c0,.777-.395,1.294-1.048,1.294a1.046,1.046,0,0,1-1.1-1.2v-.769c0-.855.464-1.239,1.091-1.239.782,0,1.056.51,1.056,1.2Z" transform="translate(-30.287 -265.592)" fill="#00424a" fill-rule="evenodd"/>
      <path id="Path_17680" data-name="Path 17680" d="M62.829,297.12c.069-.141-.627-.447-.713-.282a1.077,1.077,0,0,1-1.975-.706v-.769c0-.855.464-1.239,1.1-1.239a.994.994,0,0,1,.885.439c.086.141.807-.3.7-.455a1.862,1.862,0,0,0-1.572-.588c-1.3,0-2.156.6-2.156,2.243,0,1.671.782,2.172,2.112,2.172a1.745,1.745,0,0,0,1.623-.816" transform="translate(-41.558 -265.592)" fill="#00424a" fill-rule="evenodd"/>
      <path id="Path_17681" data-name="Path 17681" d="M74.484,289.3v-.266c0-.173.009-.267-.18-.267h-.541c-.2,0-.232.047-.232.227v.283c0,.22.043.259.215.259h.567c.137,0,.172-.047.172-.235m0,4.933v-3.71c0-.172,0-.235-.206-.235h-.541c-.172,0-.206.079-.206.235v3.71c0,.2.026.274.18.274h.6c.163,0,.172-.071.172-.274" transform="translate(-51.712 -262.247)" fill="#00424a" fill-rule="evenodd"/>
      <path id="Path_17682" data-name="Path 17682" d="M83.131,297.543v-3.678c0-.165-.009-.235-.249-.235h-.55c-.1,0-.155.078-.155.2v.345a1.5,1.5,0,0,0-1.408-.651c-.988,0-1.52.863-1.52,2.243,0,1.561.7,2.172,1.537,2.172a1.6,1.6,0,0,0,1.391-.643v.329c0,.2.077.227.206.227h.541c.189,0,.206-.1.206-.306m-1.022-1a.986.986,0,0,1-.928.792c-.609,0-.919-.494-.919-1.263v-.659c0-.925.318-1.3.9-1.3a.989.989,0,0,1,.945,1Z" transform="translate(-55.733 -265.592)" fill="#00424a" fill-rule="evenodd"/>
      <path id="Path_17683" data-name="Path 17683" d="M98.549,297.12c.069-.141-.627-.447-.713-.282a1.077,1.077,0,0,1-1.975-.706v-.769c0-.855.464-1.239,1.1-1.239a.994.994,0,0,1,.885.439c.086.141.807-.3.7-.455a1.862,1.862,0,0,0-1.572-.588c-1.3,0-2.156.6-2.156,2.243,0,1.514.644,2.071,1.752,2.157v.541c0,.055.026.047.086.039a.811.811,0,0,1,.146-.016c.275,0,.438.063.438.3,0,.212-.206.29-.489.29a.6.6,0,0,1-.455-.165c-.052-.071-.344.165-.249.267a.867.867,0,0,0,.739.274c.567,0,1-.228,1-.667,0-.408-.3-.612-.721-.612v-.235a1.722,1.722,0,0,0,1.486-.816" transform="translate(-66.678 -265.592)" fill="#00424a" fill-rule="evenodd"/>
      <path id="Path_17684" data-name="Path 17684" d="M112.425,288.427c.026-.055.026-.094-.034-.118l-.344-.1c-.06-.031-.094-.008-.12.047a.608.608,0,0,1-.507.321c-.309,0-.782-.447-1.168-.447a1.2,1.2,0,0,0-.936.745c-.026.047-.017.078.034.1l.318.149c.052.024.086.024.129-.047a.653.653,0,0,1,.489-.3c.318,0,.721.431,1.117.431a1.225,1.225,0,0,0,1.022-.784m.275,5.325v-3.678c0-.165-.009-.235-.249-.235H111.9c-.1,0-.155.078-.155.2v.345a1.5,1.5,0,0,0-1.408-.651c-.988,0-1.52.863-1.52,2.243,0,1.56.7,2.172,1.537,2.172a1.6,1.6,0,0,0,1.391-.643v.329c0,.2.077.227.206.227h.541c.189,0,.206-.1.206-.306m-1.022-1a.986.986,0,0,1-.928.792c-.609,0-.919-.494-.919-1.263v-.659c0-.925.318-1.3.9-1.3a.989.989,0,0,1,.945,1Z" transform="translate(-76.528 -261.801)" fill="#00424a" fill-rule="evenodd"/>
      <path id="Path_17685" data-name="Path 17685" d="M128.557,295.755c0-1.608-.73-2.235-2-2.235-1.3,0-2.147.6-2.147,2.243,0,1.671.773,2.172,2.1,2.172a1.922,1.922,0,0,0,2.044-2.18m-.979.282c0,.777-.395,1.294-1.048,1.294a1.047,1.047,0,0,1-1.1-1.2v-.769c0-.855.464-1.239,1.091-1.239.782,0,1.056.51,1.056,1.2Z" transform="translate(-87.492 -265.592)" fill="#00424a" fill-rule="evenodd"/>
      <path id="Path_17686" data-name="Path 17686" d="M151.389,290.583c0-1.208-.773-1.819-2.353-1.819H147.2c-.18,0-.206.055-.206.2v5.262c0,.18-.017.274.172.274h.67c.155,0,.206-.047.206-.251v-1.647c0-.133.017-.157.137-.157h.979c1.494,0,2.233-.659,2.233-1.866m-1.056-.039a1.014,1.014,0,0,1-1.082,1.161h-1.039c-.137,0-.172-.016-.172-.149v-1.937c0-.063.026-.134.155-.141h.8c.73,0,1.339.306,1.339,1.067" transform="translate(-103.374 -262.248)" fill="#00424a" fill-rule="evenodd"/>
      <path id="Path_17687" data-name="Path 17687" d="M167.771,295.755c0-1.608-.73-2.235-2-2.235-1.3,0-2.147.6-2.147,2.243,0,1.671.773,2.172,2.1,2.172a1.922,1.922,0,0,0,2.044-2.18m-.979.282c0,.777-.395,1.294-1.048,1.294a1.047,1.047,0,0,1-1.1-1.2v-.769c0-.855.464-1.239,1.091-1.239.782,0,1.056.51,1.056,1.2Z" transform="translate(-115.07 -265.592)" fill="#00424a" fill-rule="evenodd"/>
      <path id="Path_17688" data-name="Path 17688" d="M182.569,293.791c.009-.086-.069-.086-.137-.086a1.667,1.667,0,0,0-1.357.659v-.4a.182.182,0,0,0-.206-.2h-.55c-.172,0-.206.086-.206.243v3.686c0,.2.052.29.24.29h.541c.163,0,.172-.094.172-.3v-2.361c0-.251.257-.541.653-.753a1.5,1.5,0,0,1,.7-.165c.077,0,.112-.039.129-.118Z" transform="translate(-126.667 -265.723)" fill="#00424a" fill-rule="evenodd"/>
      <path id="Path_17689" data-name="Path 17689" d="M191.717,292.125v-.3c0-.1-.034-.172-.2-.172H190.7v-.863c0-.157-.052-.228-.232-.2l-.464.079c-.137.015-.24.055-.24.2v.784h-.412c-.163,0-.189.031-.189.157v.3c0,.1.026.165.137.165h.429v2.572a.95.95,0,0,0,1.074,1.027,3.177,3.177,0,0,0,.807-.094c.077-.031.009-.6-.086-.588a1.605,1.605,0,0,1-.429.047c-.232,0-.369-.157-.369-.416v-2.541h.79c.18,0,.206-.055.206-.157" transform="translate(-133.028 -263.531)" fill="#00424a" fill-rule="evenodd"/>
      <path id="Path_17690" data-name="Path 17690" d="M203.506,297.867v-3.686c0-.2-.043-.29-.232-.29h-.541c-.163,0-.172.094-.172.3v2.361a.925.925,0,0,1-.962.894.708.708,0,0,1-.8-.776v-2.494c0-.2-.077-.282-.223-.282h-.558c-.155,0-.2.078-.2.274v2.69a1.247,1.247,0,0,0,1.357,1.333,1.7,1.7,0,0,0,1.374-.564c0,.361.06.486.206.486h.55c.172,0,.2-.086.2-.243" transform="translate(-140.528 -265.853)" fill="#00424a" fill-rule="evenodd"/>
      <path id="Path_17691" data-name="Path 17691" d="M218.651,297.253v-3.341c0-.173.009-.282-.215-.282h-.524c-.172,0-.206.063-.206.447a1.8,1.8,0,0,0-1.443-.557c-.953,0-1.485.871-1.485,2.2,0,1.608.653,2.212,1.537,2.212a1.633,1.633,0,0,0,1.391-.572c0,.055.009.235.009.282-.026.9-.318,1.263-.945,1.263a5.033,5.033,0,0,1-1.159-.165c-.275-.063-.335-.039-.335.063v.4c0,.141.086.165.249.2a6,6,0,0,0,1.348.117c1.2,0,1.778-.612,1.778-2.274m-1.013-.651a.926.926,0,0,1-.928.729c-.618,0-.919-.471-.919-1.231v-.659c0-.784.326-1.325.91-1.325a.943.943,0,0,1,.936.98Z" transform="translate(-151.045 -265.592)" fill="#00424a" fill-rule="evenodd"/>
      <path id="Path_17692" data-name="Path 17692" d="M234.488,297.867v-3.686c0-.2-.043-.29-.232-.29h-.541c-.163,0-.172.094-.172.3v2.361a.925.925,0,0,1-.962.894.708.708,0,0,1-.8-.776v-2.494c0-.2-.077-.282-.223-.282H231c-.155,0-.2.078-.2.274v2.69a1.247,1.247,0,0,0,1.357,1.333,1.7,1.7,0,0,0,1.374-.564c0,.361.06.486.206.486h.55c.172,0,.2-.086.2-.243" transform="translate(-162.315 -265.853)" fill="#00424a" fill-rule="evenodd"/>
      <path id="Path_17693" data-name="Path 17693" d="M249.641,295.661v-.486c0-1.051-.7-1.655-1.889-1.655-1.305,0-1.993.753-1.993,2.258,0,1.553.756,2.157,2.233,2.157a6.545,6.545,0,0,0,1.271-.133c.223-.063.283-.094.283-.235v-.392c0-.086-.086-.126-.24-.071a4.127,4.127,0,0,1-1.271.172,1.137,1.137,0,0,1-1.3-1.278h2.551c.318,0,.352-.11.352-.337m-.936-.408c0,.11-.009.149-.095.149h-1.734c-.12,0-.112-.047-.112-.157.009-.628.284-1.161.971-1.161.7,0,.953.416.97,1.169" transform="translate(-172.834 -265.592)" fill="#00424a" fill-rule="evenodd"/>
      <path id="Path_17694" data-name="Path 17694" d="M263.963,296.749c0-.729-.507-1.1-1.314-1.49-.447-.22-.816-.424-.816-.666,0-.337.275-.51.773-.51a4.084,4.084,0,0,1,.893.126c.146.023.3-.541.206-.58a3.808,3.808,0,0,0-1.159-.134c-.867,0-1.675.361-1.675,1.121,0,.635.584.949,1.237,1.255.575.275.867.526.867.847,0,.4-.318.549-.876.549a2.954,2.954,0,0,1-1.142-.2c-.172-.055-.206.557-.12.6a3.44,3.44,0,0,0,1.477.251c.773,0,1.649-.2,1.649-1.169" transform="translate(-183.405 -265.574)" fill="#00424a" fill-rule="evenodd"/>
      <path id="Path_17695" data-name="Path 17695" d="M277.322,297.543v-3.678c0-.165-.009-.235-.249-.235h-.55c-.1,0-.155.078-.155.2v.345a1.5,1.5,0,0,0-1.408-.651c-.988,0-1.52.863-1.52,2.243,0,1.561.7,2.172,1.537,2.172a1.6,1.6,0,0,0,1.391-.643v.329c0,.2.077.227.206.227h.541c.189,0,.206-.1.206-.306m-1.022-1a.985.985,0,0,1-.927.792c-.61,0-.919-.494-.919-1.263v-.659c0-.925.318-1.3.9-1.3a.989.989,0,0,1,.944,1Z" transform="translate(-192.3 -265.592)" fill="#00424a" fill-rule="evenodd"/>
      <path id="Path_17696" data-name="Path 17696" d="M298.6,293.994v-5.285c0-.165-.009-.235-.249-.235h-.55c-.112,0-.155.094-.155.258v1.851a1.561,1.561,0,0,0-1.408-.612c-.988,0-1.52.863-1.52,2.243,0,1.561.661,2.172,1.5,2.172a1.756,1.756,0,0,0,1.426-.534v.22c0,.219.077.227.206.227h.541c.189,0,.206-.1.206-.306m-1.022-.918a.921.921,0,0,1-.919.706c-.61,0-.927-.486-.927-1.255v-.659c0-.776.317-1.3.9-1.3a.926.926,0,0,1,.945.957Z" transform="translate(-207.266 -262.043)" fill="#00424a" fill-rule="evenodd"/>
      <path id="Path_17697" data-name="Path 17697" d="M335.923,288.8a2.476,2.476,0,0,0-1.5-.329c-2.07,0-2.568.894-2.568,1.984v2.2c0,1.082.85,1.741,2.379,1.741a3.945,3.945,0,0,0,1.649-.29c.077-.055-.077-.737-.2-.706a3.322,3.322,0,0,1-1.374.282c-.687,0-1.408-.259-1.408-1.114v-2.039c0-.886.447-1.326,1.606-1.326a2.608,2.608,0,0,1,1.133.235c.086.024.369-.58.283-.643" transform="translate(-233.38 -262.043)" fill="#00424a" fill-rule="evenodd"/>
      <path id="Path_17698" data-name="Path 17698" d="M351.82,295.755c0-1.608-.73-2.235-2-2.235-1.3,0-2.147.6-2.147,2.243,0,1.671.773,2.172,2.1,2.172a1.922,1.922,0,0,0,2.044-2.18m-.979.282c0,.777-.4,1.294-1.048,1.294a1.047,1.047,0,0,1-1.1-1.2v-.769c0-.855.464-1.239,1.091-1.239.782,0,1.056.51,1.056,1.2Z" transform="translate(-244.505 -265.592)" fill="#00424a" fill-rule="evenodd"/>
      <path id="Path_17699" data-name="Path 17699" d="M366.618,293.791c.009-.086-.069-.086-.137-.086a1.667,1.667,0,0,0-1.357.659v-.4a.182.182,0,0,0-.206-.2h-.55c-.172,0-.206.086-.206.243v3.686c0,.2.052.29.24.29h.541c.163,0,.172-.094.172-.3v-2.361c0-.251.258-.541.653-.753a1.5,1.5,0,0,1,.7-.165c.077,0,.112-.039.129-.118Z" transform="translate(-256.102 -265.723)" fill="#00424a" fill-rule="evenodd"/>
      <path id="Path_17700" data-name="Path 17700" d="M375.767,292.125v-.3c0-.1-.034-.172-.2-.172h-.824v-.863c0-.157-.051-.228-.232-.2l-.463.079c-.137.015-.241.055-.241.2v.784H373.4c-.163,0-.189.031-.189.157v.3c0,.1.026.165.137.165h.429v2.572a.95.95,0,0,0,1.073,1.027,3.182,3.182,0,0,0,.807-.094c.077-.031.009-.6-.086-.588a1.6,1.6,0,0,1-.429.047c-.232,0-.369-.157-.369-.416v-2.541h.79c.18,0,.206-.055.206-.157" transform="translate(-262.463 -263.531)" fill="#00424a" fill-rule="evenodd"/>
      <path id="Path_17701" data-name="Path 17701" d="M384.826,289.3v-.266c0-.173.009-.267-.18-.267H384.1c-.2,0-.232.047-.232.227v.283c0,.22.043.259.215.259h.567c.138,0,.172-.047.172-.235m0,4.933v-3.71c0-.172,0-.235-.206-.235h-.541c-.172,0-.206.079-.206.235v3.71c0,.2.026.274.18.274h.6c.163,0,.172-.071.172-.274" transform="translate(-269.963 -262.247)" fill="#00424a" fill-rule="evenodd"/>
      <path id="Path_17702" data-name="Path 17702" d="M393.3,297.12c.069-.141-.627-.447-.713-.282a1.077,1.077,0,0,1-1.975-.706v-.769c0-.855.464-1.239,1.1-1.239a.994.994,0,0,1,.884.439c.086.141.807-.3.7-.455a1.862,1.862,0,0,0-1.571-.588c-1.3,0-2.156.6-2.156,2.243,0,1.514.644,2.071,1.752,2.157v.541c0,.055.026.047.086.039a.814.814,0,0,1,.146-.016c.275,0,.438.063.438.3,0,.212-.206.29-.49.29a.605.605,0,0,1-.455-.165c-.051-.071-.343.165-.249.267a.867.867,0,0,0,.739.274c.567,0,1-.228,1-.667,0-.408-.3-.612-.721-.612v-.235a1.723,1.723,0,0,0,1.486-.816" transform="translate(-273.963 -265.592)" fill="#00424a" fill-rule="evenodd"/>
      <path id="Path_17703" data-name="Path 17703" d="M407.448,297.543v-3.678c0-.165-.009-.235-.249-.235h-.55c-.1,0-.154.078-.154.2v.345a1.5,1.5,0,0,0-1.409-.651c-.988,0-1.52.863-1.52,2.243,0,1.561.7,2.172,1.537,2.172a1.6,1.6,0,0,0,1.391-.643v.329c0,.2.077.227.206.227h.541c.189,0,.206-.1.206-.306m-1.022-1a.986.986,0,0,1-.927.792c-.61,0-.919-.494-.919-1.263v-.659c0-.925.318-1.3.9-1.3a.989.989,0,0,1,.945,1Z" transform="translate(-283.813 -265.592)" fill="#00424a" fill-rule="evenodd"/>
      <path id="Path_17704" data-name="Path 17704" d="M314.195,297.543v-3.678c0-.165-.009-.235-.249-.235h-.55c-.1,0-.155.078-.155.2v.345a1.5,1.5,0,0,0-1.409-.651c-.988,0-1.52.863-1.52,2.243,0,1.561.7,2.172,1.537,2.172a1.6,1.6,0,0,0,1.391-.643v.329c0,.2.077.227.206.227h.541c.189,0,.206-.1.206-.306m-1.022-1a.986.986,0,0,1-.928.792c-.609,0-.919-.494-.919-1.263v-.659c0-.925.318-1.3.9-1.3a.989.989,0,0,1,.945,1Z" transform="translate(-218.232 -265.592)" fill="#00424a" fill-rule="evenodd"/>
    </g>
  </g>
</svg>